<?xml version="1.0" encoding="utf-8"?>
<!-- Generator: Adobe Illustrator 22.0.1, SVG Export Plug-In . SVG Version: 6.00 Build 0)  -->
<svg version="1.1" id="Capa_1" xmlns="http://www.w3.org/2000/svg" xmlns:xlink="http://www.w3.org/1999/xlink" x="0px" y="0px"
	 viewBox="0 0 372.4 236.8" style="enable-background:new 0 0 372.4 236.8;" xml:space="preserve">
<style type="text/css">
	.st0{fill:#873388;}
</style>
<g>
	<path class="st0" d="M13.3,104.9V14.7h37.9v16.7H30.8v18.2h18.6v16.6H30.8v21.1h20.5v17.6H13.3z"/>
	<path class="st0" d="M58,99.7l6.9-12.3c2.1,1.4,3.9,2.4,5.4,3c1.5,0.6,2.9,1,4.1,1c1.3,0,2.3-0.4,3.2-1.2c0.8-0.8,1.3-1.9,1.3-3.1
		c0-2.1-2.1-4.5-6.2-7c-1.1-0.7-1.9-1.2-2.5-1.5c-4-2.7-6.7-5.3-8.3-7.8c-1.6-2.5-2.4-5.5-2.4-9c0-5.7,1.8-10.2,5.3-13.5
		c3.5-3.3,8.3-5,14.3-5c3,0,5.9,0.4,8.6,1.3c2.7,0.8,5.4,2.2,7.9,3.9l-7.1,12c-1.6-1.4-3.1-2.4-4.5-3c-1.4-0.7-2.7-1-3.9-1
		c-1.4,0-2.5,0.4-3.3,1.1c-0.8,0.7-1.3,1.7-1.3,2.9c0,1.8,1.9,3.8,5.7,6.2c1.2,0.7,2.1,1.3,2.8,1.8c4.3,3,7.3,5.8,9,8.4
		c1.7,2.7,2.5,5.8,2.5,9.4c0,5.9-1.9,10.7-5.8,14.3c-3.9,3.7-8.9,5.5-15.2,5.5c-3,0-6-0.5-8.7-1.5C63.2,103.5,60.6,101.9,58,99.7z"
		/>
	<path class="st0" d="M106.6,104.9V57.4h-6.6v-13h6.6V26.9h16.7v17.5h6.6v13h-6.6v47.6H106.6z"/>
	<path class="st0" d="M150.4,79.1v0.5c0,4.5,0.8,8,2.4,10.4c1.6,2.4,3.9,3.6,6.9,3.6c1.9,0,3.5-0.6,4.8-1.7c1.3-1.2,2.4-2.9,3.2-5.3
		h14.4c-1.3,6.1-4,10.8-8.2,14.2c-4.1,3.4-9.2,5.1-15.2,5.1c-7.5,0-13.5-2.8-18-8.5c-4.4-5.6-6.7-13.3-6.7-22.9
		c0-9.7,2.2-17.4,6.7-23c4.4-5.6,10.4-8.5,18-8.5c8,0,14,2.8,18.1,8.3s6.1,13.8,6.1,24.6v2.9H150.4z M168.3,69.5
		c-0.1-4.4-0.9-7.7-2.4-9.8c-1.5-2.1-3.7-3.2-6.6-3.2c-2.9,0-5.1,1.1-6.6,3.3c-1.5,2.2-2.3,5.5-2.3,9.7L168.3,69.5z"/>
	<path class="st0" d="M191.7,104.9V9.2h16.1v43.7c1.8-3.1,3.8-5.4,6-6.9c2.2-1.5,4.6-2.3,7.2-2.3c5.8,0,10.3,2.7,13.3,8.2
		c3,5.5,4.5,13.5,4.5,24c0,9.5-1.6,16.9-4.7,22.2c-3.1,5.3-7.4,8-12.8,8c-3,0-5.6-0.9-7.9-2.6c-2.3-1.7-4.2-4.2-5.7-7.5v8.8H191.7z
		 M215.2,57.2c-2.6,0-4.6,1.3-5.8,3.9c-1.2,2.6-1.8,6.8-1.8,12.5c0,6.2,0.6,10.7,1.7,13.4c1.2,2.7,3,4.1,5.6,4.1
		c2.5,0,4.3-1.4,5.5-4.3c1.2-2.9,1.8-7.3,1.8-13.4c0-5.7-0.6-9.8-1.7-12.4C219.4,58.5,217.6,57.2,215.2,57.2z"/>
	<path class="st0" d="M293.7,104.9H278v-9c-1.8,3.3-3.8,5.8-6.1,7.5s-4.8,2.5-7.6,2.5c-5.8,0-10.2-2.7-13.3-8
		c-3.1-5.4-4.6-13.1-4.6-23.3c0-9.9,1.6-17.5,4.7-22.9c3.2-5.4,7.6-8.1,13.3-8.1c2.7,0,5.1,0.8,7.3,2.4c2.2,1.6,4.3,4.1,6.2,7.5
		v-9.3h15.7V104.9z M278,73.7c0-5.5-0.6-9.6-1.9-12.3c-1.3-2.7-3.3-4-6-4c-2.4,0-4.2,1.3-5.3,3.9c-1.1,2.6-1.6,6.8-1.6,12.6
		c0,5.8,0.6,10.1,1.8,12.9c1.2,2.9,3.1,4.3,5.5,4.3c2.6,0,4.6-1.4,5.7-4.1C277.4,84.1,278,79.7,278,73.7z"/>
	<path class="st0" d="M334.2,104.9V68.2c0-3.5-0.4-5.8-1.2-7.1c-0.8-1.3-2.2-1.9-4.2-1.9c-2.1,0-3.7,0.8-4.6,2.3
		c-0.9,1.5-1.4,4-1.4,7.5v36H306V44.3h15.6v9.4c2.2-3.4,4.6-5.9,7.4-7.5c2.7-1.6,5.8-2.5,9.3-2.5c4.7,0,8,1.3,9.9,4
		c1.9,2.7,2.8,7.9,2.8,15.8v41.4H334.2z"/>
	<path class="st0" d="M95.2,213.9v-90.2h17.5c11.8,0,20.1,1.8,25,5.5c4.9,3.7,7.3,9.9,7.3,18.5c0,4.9-0.9,8.9-2.8,12.1
		c-1.9,3.2-4.7,5.7-8.6,7.6c4.4,1.6,7.6,4,9.7,7.4c2.1,3.4,3.1,7.8,3.1,13.3c0,4.1-0.7,7.8-2,11.1c-1.4,3.3-3.3,6.1-5.9,8.4
		c-2.6,2.3-5.7,3.9-9.4,4.8c-3.6,1-9.4,1.5-17.2,1.5H95.2z M112.7,161.1h1.9c4.6,0,8-0.9,10.2-2.7c2.2-1.8,3.2-4.6,3.2-8.4
		c0-4-1.1-6.9-3.3-8.8c-2.2-1.9-5.6-2.8-10.2-2.8h-1.8V161.1z M112.7,197.8c0.3,0,0.7,0,1.3,0.1c0.6,0,1,0.1,1.3,0.1
		c4.6,0,8-0.9,10-2.8c2.1-1.9,3.1-4.8,3.1-8.8c0-4.3-1.1-7.4-3.2-9.3c-2.1-1.9-5.6-2.8-10.4-2.8h-2.2V197.8z"/>
	<path class="st0" d="M156,213.9v-60.6h15.6V164c1.4-4,3.2-6.9,5.4-8.9c2.3-2,5-3,8.2-3v15.9h-1.1c-4.4,0-7.4,1-9,3.1
		c-1.6,2.1-2.4,6.8-2.4,14.2v28.5H156z"/>
	<path class="st0" d="M237.1,213.9h-15.7v-9c-1.8,3.3-3.8,5.8-6.1,7.5c-2.3,1.7-4.8,2.5-7.6,2.5c-5.8,0-10.2-2.7-13.3-8
		c-3.1-5.4-4.6-13.1-4.6-23.3c0-9.9,1.6-17.5,4.7-22.9c3.2-5.4,7.6-8.1,13.3-8.1c2.7,0,5.1,0.8,7.3,2.4c2.2,1.6,4.3,4.1,6.2,7.5
		v-9.3h15.7V213.9z M221.5,182.6c0-5.5-0.6-9.6-1.9-12.3c-1.3-2.7-3.3-4-6-4c-2.4,0-4.2,1.3-5.3,3.9c-1.1,2.6-1.6,6.8-1.6,12.6
		c0,5.8,0.6,10.1,1.8,12.9c1.2,2.9,3.1,4.3,5.5,4.3c2.6,0,4.6-1.4,5.7-4.1C220.9,193.1,221.5,188.7,221.5,182.6z"/>
	<path class="st0" d="M277.7,213.9v-36.7c0-3.5-0.4-5.8-1.2-7.1c-0.8-1.3-2.2-1.9-4.2-1.9c-2.1,0-3.7,0.8-4.6,2.3
		c-0.9,1.5-1.4,4-1.4,7.5v36h-16.7v-60.6H265v9.4c2.2-3.4,4.6-5.9,7.4-7.5c2.7-1.6,5.8-2.5,9.3-2.5c4.7,0,8,1.3,9.9,4
		c1.9,2.7,2.8,7.9,2.8,15.8v41.4H277.7z"/>
	<path class="st0" d="M334.2,213.9v-36.7c0-3.5-0.4-5.8-1.2-7.1c-0.8-1.3-2.2-1.9-4.2-1.9c-2.1,0-3.7,0.8-4.6,2.3
		c-0.9,1.5-1.4,4-1.4,7.5v36H306v-60.6h15.6v9.4c2.2-3.4,4.6-5.9,7.4-7.5c2.7-1.6,5.8-2.5,9.3-2.5c4.7,0,8,1.3,9.9,4
		c1.9,2.7,2.8,7.9,2.8,15.8v41.4H334.2z"/>
</g>
<rect x="13.3" y="9.2" class="st0" width="37.9" height="22.2"/>
</svg>
